<svg xmlns="http://www.w3.org/2000/svg" xmlns:xlink="http://www.w3.org/1999/xlink" width="1193.857" height="344" viewBox="0 0 1193.857 344">
  <defs>
    <style>
      .cls-1 {
        fill: #219ebc;
      }

      .cls-2, .cls-3 {
        fill: #f5f5f5;
        font-family: Arial-BoldMT, Arial;
        font-weight: 700;
      }

      .cls-2 {
        font-size: 99px;
      }

      .cls-3 {
        font-size: 35px;
      }

      .cls-4 {
        filter: url(#Caminho_10);
      }
    </style>
    <filter id="Caminho_10" x="0" y="0" width="1193.857" height="344" filterUnits="userSpaceOnUse">
      <feOffset dy="3" input="SourceAlpha"/>
      <feGaussianBlur stdDeviation="3" result="blur"/>
      <feFlood flood-opacity="0.161"/>
      <feComposite operator="in" in2="blur"/>
      <feComposite in="SourceGraphic"/>
    </filter>
  </defs>
  <g id="Dados" transform="translate(-758.321 -998)">
    <g class="cls-4" transform="matrix(1, 0, 0, 1, 758.32, 998)">
      <path id="Caminho_10-2" data-name="Caminho 10" class="cls-1" d="M160.1,0h936.059c83.647,0,80.125,82.419,79.5,160.489-.034,4.276-.061,8.708-.061,13.109,0,3.831.02,7.638.05,11.545.58,76.464,4.778,140.858-79.488,140.858H160.1C71.68,326,0,253.022,0,163S71.68,0,160.1,0Z" transform="translate(9 6)"/>
    </g>
    <g id="RedesCredenciadas">
      <text id="_50" data-name="+50" class="cls-2" transform="translate(899 1172)"><tspan x="0" y="0">+50</tspan></text>
      <text id="Redes_Credênciadas" data-name="Redes 
Credênciadas" class="cls-3" transform="translate(1004 1231)"><tspan x="-57.388" y="0">Redes </tspan><tspan x="-114.775" y="40">Credênciadas</tspan></text>
    </g>
    <g id="PetsCredenciadas" transform="translate(327)">
      <text id="_1500" data-name="+1500" class="cls-2" transform="translate(856 1172)"><tspan x="0" y="0">+1500</tspan></text>
      <text id="Pets_Beneficiados" data-name="Pets
Beneficiados" class="cls-3" transform="translate(995 1231)"><tspan x="-36.965" y="0">Pets</tspan><tspan x="-108.922" y="40">Beneficiados</tspan></text>
    </g>
    <g id="ONGsCredenciadas" transform="translate(691)">
      <text id="_100" data-name="+100" class="cls-2" transform="translate(865 1172)"><tspan x="0" y="0">+100</tspan></text>
      <text id="ONGs_Beneficiadas" data-name="ONGs
Beneficiadas" class="cls-3" transform="translate(1004 1231)"><tspan x="-49.595" y="0">ONGs</tspan><tspan x="-107.965" y="40">Beneficiadas</tspan></text>
    </g>
  </g>
</svg>
